<?xml version="1.0" encoding="UTF-8"?>
<svg width="210mm" height="297mm" version="1.1" viewBox="0 0 210 297" xmlns="http://www.w3.org/2000/svg">
<path d="m167.23 37.613c-4.3915 5.7329-12.294 14.259-14.109 15.251-2.6562 1.4521-4.4579-10.094-9.3637-9.4658-2.2817 0.29196-5.5855 11.197-9.3249 12.834-4.6265 1.8241-6.8997-5.7114-8.0819-6.4353-6.9385-4.2487-9.449 15.895-9.449 17.78v3.6364c0 1.8851 1.4346 3.7973 3.1304 3.4026 5.3933-9.6803 26.283-6.0219 33.523-5.2746 21.838 8.5 36.417-36.824 13.674-31.728z" fill="#461f19" stroke-width=".16383"/>
<path d="m50.905 44.524c4.3914 5.7329 4.8959 7.3224 6.7102 8.3142 2.6562 1.4521 7.6528-9.7131 12.559-9.0854 2.2817 0.29196 6.2296 11.827 6.13 12.453 3.9181 0.0844 7.9764-8.9491 11.12-7.8475 3.2564 1.1412 5.5433 12.529 6.4112 19.192v3.6364c0 1.885-1.4346 3.7973-3.1304 3.4026-5.2486-9.4207-30.845-9.0792-37.905-8.4992-19.262 6.2771-33.362-47.359-1.8945-21.567z" fill="#461f19" stroke-width=".16383"/>
<rect x="88.467" y="219.03" width="10.97" height="60.568" ry="1.5048" fill="#4a3829" stroke-width=".2282"/>
<rect x="116.43" y="219.16" width="10.97" height="60.568" ry="1.5048" fill="#4a3829" stroke-width=".2282"/>
<path d="m146.29 177.01c0 31.079-18.184 56.274-40.615 56.274-22.431 0-40.615-25.195-40.615-56.274-2e-6 -31.079 18.184-47.233 40.615-47.233 22.431 0 40.615 16.154 40.615 47.233z" fill="#9e7758" stroke-width=".2282"/>
<path d="m130.44 178.06 5.6914 10.522s34.034-27.809 28.545-47.365c-2.0127-7.1713-8.2522-12.147-16.193-15.093-11.041-4.0958-35.126 7.868-35.126 7.868s38.475-4.9405 39.978 10.488c2.0188 20.724-22.896 33.58-22.896 33.58z" fill="#4a3829" stroke-width=".25237"/>
<path transform="translate(17.499 27.267)" d="m86.849 195.31-10.552-23.931-26.001 2.8274 15.449-21.104-15.449-21.104 26.001 2.8274 10.552-23.931 10.552 23.931 26.001-2.8274-15.449 21.104 15.449 21.104-26.001-2.8274z" fill="#4184b5" stroke-width=".26458"/>
<path transform="matrix(.7984 0 0 .78836 35.117 59.364)" d="m86.849 195.31-9.0748-26.49-27.479 5.3862 18.404-21.104-18.404-21.104 27.479 5.3862 9.0748-26.49 9.0748 26.49 27.479-5.3862-18.404 21.104 18.404 21.104-27.479-5.3862z" fill="#7eabcc" stroke-width=".26458"/>
<rect x="89.223" y="118.95" width="31.133" height="16.008" ry="1.877" fill="#c7c7c7" stroke-width=".10336"/>
<path d="m74.208 178.22-5.6914 10.522s-34.034-27.809-28.545-47.365c2.0127-7.1713 8.2521-12.147 16.193-15.093 11.041-4.0958 35.126 7.868 35.126 7.868s-38.475-4.9405-39.978 10.488c-2.0188 20.724 22.896 33.58 22.896 33.58z" fill="#4a3829" stroke-width=".25237"/>
<path d="m127.91 90.239c4.5763 13.632 1.937 40.324-22.729 40.324-21.191 0-27.844-26.566-22.409-40.324 5.4354-13.758-0.26259-33.588 22.901-33.588 23.164 0 17.298 18.878 22.236 33.588z" fill="#9e7758" stroke-width=".1689"/>
<path d="m128.64 110.87c0 9.7388-11.299 19.722-22.315 19.924-12.651 0.23102-23.544-11.492-23.544-21.231 0-9.7388 12.234-14.995 23.251-14.995 11.018 1e-5 22.607 6.5642 22.607 16.303z" fill="#b18d72" stroke-width=".16586"/>
<path d="m112.17 117.14c0 1.3521-2.7313 2.4483-6.1005 2.4483-3.3692 0-6.1005-1.0961-6.1005-2.4483 0-1.3521 2.8609 1.1639 6.2302 1.1639s5.9709-2.516 5.9709-1.1639z" fill="#89674c" stroke-width=".057994"/>
<ellipse cx="100.54" cy="107.06" rx="2.3652" ry="2.5708" fill="#816048" stroke-width=".16383"/>
<ellipse cx="111.99" cy="106.87" rx="2.3652" ry="2.5708" fill="#816048" stroke-width=".16383"/>
<g transform="matrix(.59391 0 0 .64555 13.878 38.595)" stroke-width=".26458">
<ellipse cx="138.42" cy="74.079" rx="6.8768" ry="7.9806" fill="#71543f"/>
<ellipse cx="138.47" cy="74.134" rx="3.4148" ry="4.2737" fill="#574031"/>
<ellipse cx="141.62" cy="71.647" rx="1.4939" ry="2.0864" fill="#f9f9f9"/>
</g>
<g transform="matrix(.59391 0 0 .64555 13.878 38.595)" stroke-width=".26458">
<circle cx="173.77" cy="81.177" r=".053092" fill="#9e7758" stroke="#000"/>
<ellipse cx="172.78" cy="73.966" rx="6.8768" ry="7.9806" fill="#71543f"/>
<ellipse cx="172.57" cy="74.309" rx="3.4148" ry="4.2737" fill="#574031"/>
<ellipse cx="169.4" cy="71.087" rx="1.4939" ry="2.0864" fill="#f9f9f9"/>
</g>
<path transform="matrix(.59391 0 0 .93308 26.074 33.449)" d="m154.3 15.827h-42.191l21.096-36.539z" fill="#392a22" stroke-width=".26458"/>
<rect x="91.292" y="46.122" width="28.117" height="13.972" ry="3.4026" fill="#c4ac97" stroke-width=".16383"/>
<path d="m111.39 11.9a6.4547 6.9797 0 0 1-6.4547 6.9798 6.4547 6.9797 0 0 1-6.4547-6.9798 6.4547 6.9797 0 0 1 6.4547-6.9797 6.4547 6.9797 0 0 1 6.4547 6.9797z" fill="#c7c7c7" stroke-width=".16383"/>
<rect transform="matrix(.55621 .83104 -.84855 .52912 0 0)" x="152.46" y="-5.5849" width="13.02" height="37.796" ry="1.4152" fill="#c7c7c7" stroke-width=".17808"/>
<path d="m73.978 171.16s12.92-1.4963 12.667 4.9447c-0.16388 4.164-5.1023 2.2019-3.873 4.6384 1.8492 3.6652 7.6219 7.2535 4.3435 12.593-7.7035 12.547-23.533-5.9471-23.533-5.9471-0.36825 0.0258-0.64851 0.4748-0.93663 0.25676l-8.6327-6.533c-0.2881-0.21805-0.33426-0.68361-0.10348-1.0439l10.396-16.229c0.23078-0.36028 0.64852-0.47481 0.93662-0.25677l8.6327 6.533c0.28811 0.21805 0.33427 0.68361 0.10349 1.0439z" fill="#644b38" stroke-width=".11204"/>
<path d="m132.26 171.47s-12.946-1.2101-12.571 5.224c0.24187 4.1595 5.1424 2.0885 3.9591 4.5517-1.7802 3.7054-7.4845 7.4207-4.1067 12.687 7.9369 12.373 23.416-6.4666 23.416-6.4666 0.36865 0.0177 0.65726 0.46035 0.94124 0.23598l8.5085-6.7227c0.28397-0.22436 0.32138-0.69088 0.0839-1.046l-10.697-15.996c-0.23747-0.3551-0.65727-0.46035-0.94124-0.236l-8.5085 6.7227c-0.28392 0.22442-0.3214 0.69087-0.0839 1.046z" fill="#644b38" stroke-width=".11204"/>
<ellipse cx="93.713" cy="283.63" rx="13.214" ry="10.551" fill="#461f19" stroke-width=".26458"/>
<ellipse cx="122.38" cy="283.9" rx="13.214" ry="10.551" fill="#461f19" stroke-width=".26458"/>
</svg>
